HIERARCHY
ROOT Hips
{
	OFFSET 0.000000 0.000000 0.000000
	CHANNELS 6 Xposition Yposition Zposition Zrotation Yrotation Xrotation 
	JOINT LeftUpLeg_virtual
	{
		OFFSET 0.000000 0.000000 0.000000
		CHANNELS 3 Zrotation Yrotation Xrotation
		JOINT LeftUpLeg
		{
			OFFSET 10.205400 -3.823500 0.155100
			CHANNELS 3 Zrotation Yrotation Xrotation
			JOINT LeftLeg
			{
				OFFSET 0.708757 -12.982077 0.567790
				CHANNELS 3 Zrotation Yrotation Xrotation
				JOINT LeftFoot
				{
					OFFSET -0.708756 -10.717838 -2.184338
					CHANNELS 3 Zrotation Yrotation Xrotation
					JOINT LeftToeBase
					{
						OFFSET 0.108149 -7.191104 7.560241
						CHANNELS 3 Zrotation Yrotation Xrotation
						End Site
						{
							OFFSET 0.000000 0.000000 0.000000
						}
					}
				}
			}
		}
	}
	JOINT RightUpLeg_virtual
	{
		OFFSET 0.000000 0.000000 0.000000
		CHANNELS 3 Zrotation Yrotation Xrotation
		JOINT RightUpLeg
		{
			OFFSET -10.205400 -3.823500 0.005500
			CHANNELS 3 Zrotation Yrotation Xrotation
			JOINT RightLeg
			{
				OFFSET -0.708756 -12.982134 0.610632
				CHANNELS 3 Zrotation Yrotation Xrotation
				JOINT RightFoot
				{
					OFFSET 0.708754 -10.717769 -1.945823
					CHANNELS 3 Zrotation Yrotation Xrotation
					JOINT RightToeBase
					{
						OFFSET -0.108140 -7.191069 7.372968
						CHANNELS 3 Zrotation Yrotation Xrotation
						End Site
						{
							OFFSET 0.000000 0.000000 0.000000
						}
					}
				}
			}
		}
	}
	JOINT Spine_virtual
	{
		OFFSET 0.000000 0.000000 0.000000
		CHANNELS 3 Zrotation Yrotation Xrotation
		JOINT Spine
		{
			OFFSET 0.000000 6.876099 0.125700
			CHANNELS 3 Zrotation Yrotation Xrotation
			JOINT Spine1
			{
				OFFSET 0.000000 8.022060 0.146608
				CHANNELS 3 Zrotation Yrotation Xrotation
				JOINT Spine2
				{
					OFFSET 0.000000 9.168068 0.167552
					CHANNELS 3 Zrotation Yrotation Xrotation
					JOINT Neck_virtual
					{
						OFFSET 0.000000 0.000000 0.000000
						CHANNELS 3 Zrotation Yrotation Xrotation
						JOINT Neck
						{
							OFFSET 0.000000 10.314075 0.188496
							CHANNELS 3 Zrotation Yrotation Xrotation
							JOINT Head
							{
								OFFSET 0.000000 7.643700 -2.377400
								CHANNELS 3 Zrotation Yrotation Xrotation
								End Site
								{
									OFFSET 0.000000 0.000000 0.000000
								}
							}
						}
					}
					JOINT LeftShoulder_virtual
					{
						OFFSET 0.000000 0.000000 0.000000
						CHANNELS 3 Zrotation Yrotation Xrotation
						JOINT LeftShoulder
						{
							OFFSET 4.392200 8.824978 0.174984
							CHANNELS 3 Zrotation Yrotation Xrotation
							JOINT LeftArm
							{
								OFFSET 8.771219 -2.981674 -0.026999
								CHANNELS 3 Zrotation Yrotation Xrotation
								JOINT LeftForeArm
								{
									OFFSET 8.512804 0.000000 -0.000000
									CHANNELS 3 Zrotation Yrotation Xrotation
									JOINT LeftHand
									{
										OFFSET 18.484802 0.000000 -0.000000
										CHANNELS 3 Zrotation Yrotation Xrotation
										End Site
										{
											OFFSET 0.000000 0.000000 0.000000
										}
									}
								}
							}
						}
					}
					JOINT RightShoulder_virtual
					{
						OFFSET 0.000000 0.000000 0.000000
						CHANNELS 3 Zrotation Yrotation Xrotation
						JOINT RightShoulder
						{
							OFFSET -4.392200 8.824993 0.141379
							CHANNELS 3 Zrotation Yrotation Xrotation
							JOINT RightArm
							{
								OFFSET -8.771282 -2.981682 -0.094208
								CHANNELS 3 Zrotation Yrotation Xrotation
								JOINT RightForeArm
								{
									OFFSET -8.494598 0.000000 0.000000
									CHANNELS 3 Zrotation Yrotation Xrotation
									JOINT RightHand
									{
										OFFSET -18.483803 0.000000 0.000001
										CHANNELS 3 Zrotation Yrotation Xrotation
										End Site
										{
											OFFSET 0.000000 0.000000 0.000000
										}
									}
								}
							}
						}
					}
				}
			}
		}
	}
}
MOTION
Frames: 9
Frame Time: 0.033333
-3.242905 26.025761 -10.297404 179.752943 14.945620 -179.827283 2.023667 3.388926 8.467568 -1.122362 7.158738 -65.887188 19.353613 -1.654182 80.155221 -22.225272 -3.689894 -7.760663 0.000000 0.000000 0.000000 4.921653 4.878837 8.702308 13.006999 1.810204 -59.157505 -3.722164 -2.805976 59.657864 -6.618978 3.140354 6.889694 0.000000 0.000000 0.000000 2.876358 4.857482 4.951239 1.719687 0.527952 4.552854 0.151823 -4.634316 8.460415 0.051074 -0.000281 0.055757 0.590642 -3.391575 9.087138 -4.364394 -1.582976 16.014371 0.000000 0.000000 0.000000 2.364679 -2.783444 4.387291 -1.282624 -7.858614 -1.053265 -19.628550 -23.634567 -17.044297 -169.015476 -81.174988 175.658737 0.000000 0.000000 0.000000 -1.882575 -1.406547 3.946885 16.323281 13.312289 -1.270791 46.960669 -20.403988 15.962046 -179.664766 75.671031 176.604185 0.000000 0.000000 0.000000 
-3.241299 26.015045 -10.260435 179.787094 14.694466 -179.808691 2.071977 3.139451 8.429671 -1.192154 7.340963 -65.967313 19.377141 -1.616885 80.107887 -22.243515 -3.751768 -7.730614 0.000000 0.000000 0.000000 4.996763 4.602200 8.615552 13.020577 1.835201 -59.161091 -3.722765 -2.729232 59.652263 -6.681125 3.082981 6.861022 0.000000 0.000000 0.000000 2.971121 4.667145 4.821149 1.447295 0.708512 4.513316 -0.019556 -4.679665 8.591492 0.031821 -0.033914 0.035917 0.415145 -3.476902 9.305442 -4.945833 -1.230750 16.065991 0.000000 0.000000 0.000000 2.255835 -2.834061 4.591062 0.214764 -7.957123 -0.688639 -14.215022 -25.071760 -13.244753 -167.429561 -79.782750 175.991927 0.000000 0.000000 0.000000 -2.012333 -1.457323 4.137617 16.859123 13.391048 -1.061966 45.857791 -20.235050 16.014198 179.608854 75.595946 175.495646 0.000000 0.000000 0.000000 
-3.243548 26.005476 -10.212835 179.819387 14.455003 -179.804730 2.070962 3.081419 8.366113 -1.280288 7.643216 -66.040764 19.394696 -1.512265 80.058191 -22.318557 -3.871751 -7.656225 0.000000 0.000000 0.000000 5.021428 4.463153 8.568313 13.045100 1.882068 -59.127445 -3.764454 -2.509417 59.582957 -6.769813 2.914819 6.678397 0.000000 0.000000 0.000000 3.048357 4.571153 4.748908 1.244384 0.760110 4.459647 -0.177315 -4.712168 8.742752 0.027863 -0.025128 0.034864 0.238764 -3.521324 9.447488 -5.431139 -0.895519 16.107862 0.000000 0.000000 0.000000 2.123137 -2.875547 4.733949 1.378833 -7.860195 -0.228132 -9.738992 -26.131291 -9.512497 -166.472009 -79.001322 176.664236 0.000000 0.000000 0.000000 -2.161279 -1.531732 4.286377 17.397877 13.411631 -0.874217 44.774673 -19.957019 16.109612 178.389515 75.507133 173.880716 0.000000 0.000000 0.000000 
-3.242194 25.998367 -10.171994 179.854180 14.286760 -179.994186 2.058640 3.262208 8.364884 -1.333731 7.973241 -66.039050 19.390999 -1.359476 80.007688 -22.421360 -4.058814 -7.497735 0.000000 0.000000 0.000000 5.031119 4.435034 8.620891 13.012797 2.112317 -58.919657 -3.831927 -2.408875 59.448751 -6.824777 2.705371 6.525208 0.000000 0.000000 0.000000 3.149599 4.673763 4.908924 1.151342 0.759507 4.419467 -0.307141 -4.735310 8.890358 0.060265 -0.025689 0.016478 0.032263 -3.527522 9.496267 -5.817776 -0.688762 16.164228 0.000000 0.000000 0.000000 1.936000 -2.907538 4.823254 2.061844 -7.550778 0.302411 -6.286508 -26.736595 -6.970803 -166.732048 -78.776369 178.191330 0.000000 0.000000 0.000000 -2.354700 -1.562097 4.307934 17.825648 13.290302 -0.541864 43.912382 -19.662981 16.109355 177.442318 75.446242 172.573841 0.000000 0.000000 0.000000 
-3.229963 25.987034 -10.138018 179.833608 14.220327 179.996508 1.996580 3.473534 8.271148 -1.391044 8.255766 -66.192948 19.398301 -1.207178 79.934189 -22.558778 -4.238189 -7.247001 0.000000 0.000000 0.000000 5.077019 4.581956 8.575472 13.001029 2.330725 -58.846506 -3.882114 -2.351735 59.399013 -6.795770 2.522710 6.253784 0.000000 0.000000 0.000000 3.185429 4.901421 5.052611 1.099513 0.633524 4.278544 -0.434880 -4.818546 8.962734 0.014662 -0.057696 0.015438 -0.142477 -3.475620 9.567561 -6.146184 -0.603760 16.243443 0.000000 0.000000 0.000000 1.760660 -2.853863 4.843006 2.148861 -6.882687 0.642761 -3.890928 -26.718518 -6.022493 -167.373185 -78.728080 179.713943 0.000000 0.000000 0.000000 -2.489701 -1.448948 4.429663 18.079955 13.125281 -0.374129 43.395200 -19.590777 16.210906 177.322079 75.466746 172.129086 0.000000 0.000000 0.000000 
-3.222423 25.980478 -10.120513 179.847746 14.208378 179.993557 1.994573 3.545835 8.298065 -1.376739 8.299531 -66.280941 19.473834 -1.149700 79.937788 -22.643206 -4.319769 -7.084979 0.000000 0.000000 0.000000 5.132507 4.547931 8.526155 12.973287 2.445073 -58.680546 -3.944112 -2.297734 59.378147 -6.732707 2.354614 6.113282 0.000000 0.000000 0.000000 3.217514 4.795479 5.158695 1.132251 0.692891 4.128254 -0.511405 -4.731799 8.973419 0.012840 -0.005818 -0.009927 -0.290230 -3.533459 9.583417 -6.320770 -0.643601 16.326744 0.000000 0.000000 0.000000 1.611850 -2.857923 4.876618 1.848620 -6.261318 0.934217 -2.474115 -26.301800 -6.236287 -168.404816 -79.103187 -178.622069 0.000000 0.000000 0.000000 -2.649537 -1.444419 4.417709 18.259269 12.867938 -0.062774 43.260383 -19.643467 15.991585 176.814214 75.452225 171.353067 0.000000 0.000000 0.000000 
-3.228410 25.981588 -10.146117 179.854153 14.189950 -179.997150 2.041627 3.361362 8.426877 -1.362335 8.222503 -66.280525 19.582567 -1.149312 80.021267 -22.625905 -4.420614 -7.209789 0.000000 0.000000 0.000000 5.217566 4.299996 8.570254 12.954047 2.482202 -58.639291 -3.973078 -2.281821 59.372847 -6.590753 2.264702 5.962612 0.000000 0.000000 0.000000 3.323793 4.703077 5.219878 1.162977 0.760834 3.972525 -0.645314 -4.674181 8.953598 0.019791 -0.018842 0.001898 -0.346433 -3.455214 9.547841 -6.485024 -0.774715 16.429971 0.000000 0.000000 0.000000 1.543542 -2.854761 4.914945 1.251185 -5.812876 1.116565 -2.012745 -25.982465 -6.822153 -169.602299 -79.525026 -176.957770 0.000000 0.000000 0.000000 -2.737296 -1.400390 4.346299 18.256194 12.574832 0.163945 43.342891 -19.810810 15.824003 176.739478 75.609839 171.094558 0.000000 0.000000 0.000000 
-3.233511 25.989784 -10.187714 179.811710 14.313219 179.980238 2.069345 3.278153 8.659012 -1.328276 8.061354 -66.343909 19.735231 -1.206843 80.086031 -22.551370 -4.491355 -7.414085 0.000000 0.000000 0.000000 5.275105 4.165044 8.674526 12.963748 2.328762 -58.726895 -3.963145 -2.246135 59.389676 -6.431954 2.223978 5.841965 0.000000 0.000000 0.000000 3.309507 4.647653 5.246930 1.210079 0.879558 3.794795 -0.656130 -4.702268 8.901427 0.025707 -0.084370 -0.016607 -0.400304 -3.353699 9.542374 -6.623223 -0.931712 16.482298 0.000000 0.000000 0.000000 1.486829 -2.784008 4.843449 0.797182 -5.546426 1.494511 -2.036955 -25.689253 -7.127639 -170.587458 -79.913767 -175.584561 0.000000 0.000000 0.000000 -2.849049 -1.309742 4.354788 18.164564 12.438032 0.395188 43.575111 -19.910867 15.630246 177.212318 75.867972 171.497690 0.000000 0.000000 0.000000 
-3.236176 26.004141 -10.222468 179.813705 14.339668 179.967889 2.069652 3.213840 8.861342 -1.353948 7.958238 -66.382349 19.850429 -1.274942 80.076981 -22.479865 -4.618398 -7.483716 0.000000 0.000000 0.000000 5.334099 4.046918 8.878238 12.960943 2.228121 -58.876060 -3.954332 -2.188027 59.381432 -6.353743 2.186128 5.725394 0.000000 0.000000 0.000000 3.285143 4.572985 5.320404 1.264845 0.818074 3.579769 -0.674156 -4.557249 8.824480 0.022853 -0.016658 -0.010267 -0.356643 -3.349229 9.484621 -6.730908 -1.082454 16.455215 0.000000 0.000000 0.000000 1.502673 -2.749922 4.856214 0.527712 -5.599896 1.696251 -2.538290 -25.776733 -6.940001 -170.377361 -80.260679 -175.412549 0.000000 0.000000 0.000000 -2.795684 -1.241298 4.278273 18.032090 12.382015 0.719252 43.847697 -19.835170 15.582207 177.567706 76.050482 171.888609 0.000000 0.000000 0.000000 
